<svg width="144" height="144" viewBox="0 0 144 144" fill="none" xmlns="http://www.w3.org/2000/svg">
<path d="M66.2067 86.5768C67.3204 86.5768 68.1689 86.9432 68.7523 87.6761C69.3356 88.4091 69.6273 89.3252 69.6273 90.4246C69.6273 91.7857 69.1765 93.016 68.275 94.1154C67.4264 95.1624 66.2597 95.6859 64.7748 95.6859C62.2291 95.6859 58.4372 95.5027 53.399 95.1362C52.3914 95.0839 50.5352 94.9792 47.8305 94.8221C45.1258 94.665 43.0045 94.5865 41.4665 94.5865C40.7771 94.5865 39.7694 94.8221 38.4436 95.2933C38.1784 95.3456 37.6481 95.4765 36.8526 95.6859C36.1101 95.8953 35.4737 96 34.9434 96C34.0948 96 33.3789 95.6335 32.7955 94.9006C32.2652 94.1154 32 92.9636 32 91.4454C32 89.7702 32.3978 88.4876 33.1933 87.5976C33.9888 86.6553 35.235 85.8177 36.9321 85.0847C40.5384 83.5142 43.9326 81.5248 47.1146 79.1167C50.3496 76.6562 52.9217 74.0124 54.831 71.1854C56.7932 68.3585 57.7743 65.6624 57.7743 63.0972C57.7743 61.0555 57.297 59.5634 56.3424 58.6211C55.4408 57.6264 53.9824 57.1291 51.9671 57.1291C49.6337 57.1291 47.751 57.7573 46.3191 59.0138C44.9402 60.2702 44.2508 62.024 44.2508 64.2751C44.2508 67.3638 42.6863 68.9082 39.5573 68.9082C38.0723 68.9082 36.9056 68.4894 36.0571 67.6517C35.2616 66.8141 34.8638 65.61 34.8638 64.0395C34.8638 61.4219 35.5532 59.0138 36.9321 56.815C38.311 54.6162 40.3793 52.8625 43.1371 51.5537C45.8948 50.1925 49.2624 49.512 53.2399 49.512C58.013 49.512 61.7518 50.6899 64.4566 53.0457C67.1613 55.4015 68.5136 58.6735 68.5136 62.8616C68.5136 66.8403 66.737 71.0022 63.1837 75.3474C59.6835 79.6925 54.6188 83.5404 47.9896 86.8909L66.2067 86.5768Z" fill="#2DD711"/>
<path d="M66.2067 86.5768C67.3204 86.5768 68.1689 86.9432 68.7523 87.6761C69.3356 88.4091 69.6273 89.3252 69.6273 90.4246C69.6273 91.7857 69.1765 93.016 68.275 94.1154C67.4264 95.1624 66.2597 95.6859 64.7748 95.6859C62.2291 95.6859 58.4372 95.5027 53.399 95.1362C52.3914 95.0839 50.5352 94.9792 47.8305 94.8221C45.1258 94.665 43.0045 94.5865 41.4665 94.5865C40.7771 94.5865 39.7694 94.8221 38.4436 95.2933C38.1784 95.3456 37.6481 95.4765 36.8526 95.6859C36.1101 95.8953 35.4737 96 34.9434 96C34.0948 96 33.3789 95.6335 32.7955 94.9006C32.2652 94.1154 32 92.9636 32 91.4454C32 89.7702 32.3978 88.4876 33.1933 87.5976C33.9888 86.6553 35.235 85.8177 36.9321 85.0847C40.5384 83.5142 43.9326 81.5248 47.1146 79.1167C50.3496 76.6562 52.9217 74.0124 54.831 71.1854C56.7932 68.3585 57.7743 65.6624 57.7743 63.0972C57.7743 61.0555 57.297 59.5634 56.3424 58.6211C55.4408 57.6264 53.9824 57.1291 51.9671 57.1291C49.6337 57.1291 47.751 57.7573 46.3191 59.0138C44.9402 60.2702 44.2508 62.024 44.2508 64.2751C44.2508 67.3638 42.6863 68.9082 39.5573 68.9082C38.0723 68.9082 36.9056 68.4894 36.0571 67.6517C35.2616 66.8141 34.8638 65.61 34.8638 64.0395C34.8638 61.4219 35.5532 59.0138 36.9321 56.815C38.311 54.6162 40.3793 52.8625 43.1371 51.5537C45.8948 50.1925 49.2624 49.512 53.2399 49.512C58.013 49.512 61.7518 50.6899 64.4566 53.0457C67.1613 55.4015 68.5136 58.6735 68.5136 62.8616C68.5136 66.8403 66.737 71.0022 63.1837 75.3474C59.6835 79.6925 54.6188 83.5404 47.9896 86.8909L66.2067 86.5768Z" fill="url(#paint0_radial_101_8)" fill-opacity="0.7"/>
<path d="M66.2067 86.5768C67.3204 86.5768 68.1689 86.9432 68.7523 87.6761C69.3356 88.4091 69.6273 89.3252 69.6273 90.4246C69.6273 91.7857 69.1765 93.016 68.275 94.1154C67.4264 95.1624 66.2597 95.6859 64.7748 95.6859C62.2291 95.6859 58.4372 95.5027 53.399 95.1362C52.3914 95.0839 50.5352 94.9792 47.8305 94.8221C45.1258 94.665 43.0045 94.5865 41.4665 94.5865C40.7771 94.5865 39.7694 94.8221 38.4436 95.2933C38.1784 95.3456 37.6481 95.4765 36.8526 95.6859C36.1101 95.8953 35.4737 96 34.9434 96C34.0948 96 33.3789 95.6335 32.7955 94.9006C32.2652 94.1154 32 92.9636 32 91.4454C32 89.7702 32.3978 88.4876 33.1933 87.5976C33.9888 86.6553 35.235 85.8177 36.9321 85.0847C40.5384 83.5142 43.9326 81.5248 47.1146 79.1167C50.3496 76.6562 52.9217 74.0124 54.831 71.1854C56.7932 68.3585 57.7743 65.6624 57.7743 63.0972C57.7743 61.0555 57.297 59.5634 56.3424 58.6211C55.4408 57.6264 53.9824 57.1291 51.9671 57.1291C49.6337 57.1291 47.751 57.7573 46.3191 59.0138C44.9402 60.2702 44.2508 62.024 44.2508 64.2751C44.2508 67.3638 42.6863 68.9082 39.5573 68.9082C38.0723 68.9082 36.9056 68.4894 36.0571 67.6517C35.2616 66.8141 34.8638 65.61 34.8638 64.0395C34.8638 61.4219 35.5532 59.0138 36.9321 56.815C38.311 54.6162 40.3793 52.8625 43.1371 51.5537C45.8948 50.1925 49.2624 49.512 53.2399 49.512C58.013 49.512 61.7518 50.6899 64.4566 53.0457C67.1613 55.4015 68.5136 58.6735 68.5136 62.8616C68.5136 66.8403 66.737 71.0022 63.1837 75.3474C59.6835 79.6925 54.6188 83.5404 47.9896 86.8909L66.2067 86.5768Z" fill="url(#paint1_radial_101_8)" fill-opacity="0.5"/>
<path d="M90.4353 95.7644C85.238 95.7644 81.2075 94.0892 78.3437 90.7387C75.5329 87.3882 74.1275 82.5981 74.1275 76.3682C74.1275 71.0807 74.9495 66.4215 76.5936 62.3904C78.2906 58.307 80.6241 55.1398 83.594 52.8886C86.6169 50.6375 90.1171 49.512 94.0947 49.512C99.2919 49.512 103.296 51.1872 106.107 54.5377C108.971 57.8882 110.402 62.6783 110.402 68.9082C110.402 74.1957 109.554 78.8811 107.857 82.9645C106.213 86.9956 103.879 90.1367 100.856 92.3878C97.8866 94.6389 94.4129 95.7644 90.4353 95.7644ZM91.2308 86.9694C94.0947 86.9694 96.3486 85.3988 97.9926 82.2578C99.6367 79.1167 100.459 74.85 100.459 69.4579C100.459 65.8456 99.8488 63.0972 98.629 61.2125C97.4093 59.2755 95.6326 58.307 93.2992 58.307C90.4353 58.307 88.1814 59.9037 86.5374 63.0972C84.8933 66.2382 84.0713 70.5049 84.0713 75.8971C84.0713 79.5093 84.6547 82.2578 85.8214 84.1424C87.0412 86.0271 88.8443 86.9694 91.2308 86.9694Z" fill="#2DD711"/>
<path d="M90.4353 95.7644C85.238 95.7644 81.2075 94.0892 78.3437 90.7387C75.5329 87.3882 74.1275 82.5981 74.1275 76.3682C74.1275 71.0807 74.9495 66.4215 76.5936 62.3904C78.2906 58.307 80.6241 55.1398 83.594 52.8886C86.6169 50.6375 90.1171 49.512 94.0947 49.512C99.2919 49.512 103.296 51.1872 106.107 54.5377C108.971 57.8882 110.402 62.6783 110.402 68.9082C110.402 74.1957 109.554 78.8811 107.857 82.9645C106.213 86.9956 103.879 90.1367 100.856 92.3878C97.8866 94.6389 94.4129 95.7644 90.4353 95.7644ZM91.2308 86.9694C94.0947 86.9694 96.3486 85.3988 97.9926 82.2578C99.6367 79.1167 100.459 74.85 100.459 69.4579C100.459 65.8456 99.8488 63.0972 98.629 61.2125C97.4093 59.2755 95.6326 58.307 93.2992 58.307C90.4353 58.307 88.1814 59.9037 86.5374 63.0972C84.8933 66.2382 84.0713 70.5049 84.0713 75.8971C84.0713 79.5093 84.6547 82.2578 85.8214 84.1424C87.0412 86.0271 88.8443 86.9694 91.2308 86.9694Z" fill="url(#paint2_radial_101_8)" fill-opacity="0.7"/>
<path d="M90.4353 95.7644C85.238 95.7644 81.2075 94.0892 78.3437 90.7387C75.5329 87.3882 74.1275 82.5981 74.1275 76.3682C74.1275 71.0807 74.9495 66.4215 76.5936 62.3904C78.2906 58.307 80.6241 55.1398 83.594 52.8886C86.6169 50.6375 90.1171 49.512 94.0947 49.512C99.2919 49.512 103.296 51.1872 106.107 54.5377C108.971 57.8882 110.402 62.6783 110.402 68.9082C110.402 74.1957 109.554 78.8811 107.857 82.9645C106.213 86.9956 103.879 90.1367 100.856 92.3878C97.8866 94.6389 94.4129 95.7644 90.4353 95.7644ZM91.2308 86.9694C94.0947 86.9694 96.3486 85.3988 97.9926 82.2578C99.6367 79.1167 100.459 74.85 100.459 69.4579C100.459 65.8456 99.8488 63.0972 98.629 61.2125C97.4093 59.2755 95.6326 58.307 93.2992 58.307C90.4353 58.307 88.1814 59.9037 86.5374 63.0972C84.8933 66.2382 84.0713 70.5049 84.0713 75.8971C84.0713 79.5093 84.6547 82.2578 85.8214 84.1424C87.0412 86.0271 88.8443 86.9694 91.2308 86.9694Z" fill="url(#paint3_radial_101_8)" fill-opacity="0.5"/>
<path d="M119.658 46.7832C120.785 46.9359 121.724 47.3939 122.475 48.1574C123.249 48.9208 123.635 49.8806 123.635 51.0367C123.635 52.1492 123.293 53.098 122.608 53.8833C121.923 54.6686 120.995 55.2685 119.824 55.6829C118.675 56.0755 117.415 56.2719 116.045 56.2719C113.636 56.2719 111.824 55.8574 110.609 55.0285C109.416 54.1996 108.819 53.1635 108.819 51.9201C108.819 51.2003 108.996 50.6441 109.349 50.2514C109.703 49.837 110.178 49.6298 110.775 49.6298C111.283 49.6298 111.659 49.7606 111.902 50.0224C112.167 50.2623 112.388 50.6877 112.565 51.2985C112.719 51.8874 113.04 52.3346 113.526 52.64C114.012 52.9454 114.763 53.098 115.78 53.098C116.752 53.098 117.548 52.9235 118.166 52.5745C118.807 52.2037 119.128 51.6475 119.128 50.9058C119.128 50.1424 118.829 49.5861 118.233 49.2371C117.636 48.8663 116.708 48.6591 115.448 48.6155C114.984 48.5937 114.631 48.441 114.388 48.1574C114.167 47.852 114.056 47.4921 114.056 47.0776C114.056 46.5541 114.145 46.1833 114.321 45.9652C114.52 45.7252 114.852 45.5616 115.316 45.4744C116.774 45.2562 117.824 44.8418 118.465 44.231C119.128 43.5985 119.459 42.8459 119.459 41.9734C119.459 40.7737 118.619 40.1738 116.94 40.1738C115.084 40.1738 113.99 40.8936 113.658 42.3333C113.504 42.9222 113.272 43.3476 112.962 43.6094C112.675 43.8493 112.266 43.9693 111.736 43.9693C111.139 43.9693 110.675 43.8057 110.344 43.4785C110.034 43.1295 109.88 42.6714 109.88 42.1043C109.88 41.2317 110.189 40.4028 110.808 39.6176C111.427 38.8323 112.299 38.1997 113.426 37.7198C114.575 37.2399 115.912 37 117.437 37C119.558 37 121.183 37.4035 122.31 38.2106C123.437 39.0177 124 40.2174 124 41.8098C124 42.8568 123.591 43.8384 122.774 44.7545C121.978 45.6489 120.94 46.3251 119.658 46.7832Z" fill="#2DD711"/>
<path d="M119.658 46.7832C120.785 46.9359 121.724 47.3939 122.475 48.1574C123.249 48.9208 123.635 49.8806 123.635 51.0367C123.635 52.1492 123.293 53.098 122.608 53.8833C121.923 54.6686 120.995 55.2685 119.824 55.6829C118.675 56.0755 117.415 56.2719 116.045 56.2719C113.636 56.2719 111.824 55.8574 110.609 55.0285C109.416 54.1996 108.819 53.1635 108.819 51.9201C108.819 51.2003 108.996 50.6441 109.349 50.2514C109.703 49.837 110.178 49.6298 110.775 49.6298C111.283 49.6298 111.659 49.7606 111.902 50.0224C112.167 50.2623 112.388 50.6877 112.565 51.2985C112.719 51.8874 113.04 52.3346 113.526 52.64C114.012 52.9454 114.763 53.098 115.78 53.098C116.752 53.098 117.548 52.9235 118.166 52.5745C118.807 52.2037 119.128 51.6475 119.128 50.9058C119.128 50.1424 118.829 49.5861 118.233 49.2371C117.636 48.8663 116.708 48.6591 115.448 48.6155C114.984 48.5937 114.631 48.441 114.388 48.1574C114.167 47.852 114.056 47.4921 114.056 47.0776C114.056 46.5541 114.145 46.1833 114.321 45.9652C114.52 45.7252 114.852 45.5616 115.316 45.4744C116.774 45.2562 117.824 44.8418 118.465 44.231C119.128 43.5985 119.459 42.8459 119.459 41.9734C119.459 40.7737 118.619 40.1738 116.94 40.1738C115.084 40.1738 113.99 40.8936 113.658 42.3333C113.504 42.9222 113.272 43.3476 112.962 43.6094C112.675 43.8493 112.266 43.9693 111.736 43.9693C111.139 43.9693 110.675 43.8057 110.344 43.4785C110.034 43.1295 109.88 42.6714 109.88 42.1043C109.88 41.2317 110.189 40.4028 110.808 39.6176C111.427 38.8323 112.299 38.1997 113.426 37.7198C114.575 37.2399 115.912 37 117.437 37C119.558 37 121.183 37.4035 122.31 38.2106C123.437 39.0177 124 40.2174 124 41.8098C124 42.8568 123.591 43.8384 122.774 44.7545C121.978 45.6489 120.94 46.3251 119.658 46.7832Z" fill="url(#paint4_radial_101_8)" fill-opacity="0.7"/>
<path d="M119.658 46.7832C120.785 46.9359 121.724 47.3939 122.475 48.1574C123.249 48.9208 123.635 49.8806 123.635 51.0367C123.635 52.1492 123.293 53.098 122.608 53.8833C121.923 54.6686 120.995 55.2685 119.824 55.6829C118.675 56.0755 117.415 56.2719 116.045 56.2719C113.636 56.2719 111.824 55.8574 110.609 55.0285C109.416 54.1996 108.819 53.1635 108.819 51.9201C108.819 51.2003 108.996 50.6441 109.349 50.2514C109.703 49.837 110.178 49.6298 110.775 49.6298C111.283 49.6298 111.659 49.7606 111.902 50.0224C112.167 50.2623 112.388 50.6877 112.565 51.2985C112.719 51.8874 113.04 52.3346 113.526 52.64C114.012 52.9454 114.763 53.098 115.78 53.098C116.752 53.098 117.548 52.9235 118.166 52.5745C118.807 52.2037 119.128 51.6475 119.128 50.9058C119.128 50.1424 118.829 49.5861 118.233 49.2371C117.636 48.8663 116.708 48.6591 115.448 48.6155C114.984 48.5937 114.631 48.441 114.388 48.1574C114.167 47.852 114.056 47.4921 114.056 47.0776C114.056 46.5541 114.145 46.1833 114.321 45.9652C114.52 45.7252 114.852 45.5616 115.316 45.4744C116.774 45.2562 117.824 44.8418 118.465 44.231C119.128 43.5985 119.459 42.8459 119.459 41.9734C119.459 40.7737 118.619 40.1738 116.94 40.1738C115.084 40.1738 113.99 40.8936 113.658 42.3333C113.504 42.9222 113.272 43.3476 112.962 43.6094C112.675 43.8493 112.266 43.9693 111.736 43.9693C111.139 43.9693 110.675 43.8057 110.344 43.4785C110.034 43.1295 109.88 42.6714 109.88 42.1043C109.88 41.2317 110.189 40.4028 110.808 39.6176C111.427 38.8323 112.299 38.1997 113.426 37.7198C114.575 37.2399 115.912 37 117.437 37C119.558 37 121.183 37.4035 122.31 38.2106C123.437 39.0177 124 40.2174 124 41.8098C124 42.8568 123.591 43.8384 122.774 44.7545C121.978 45.6489 120.94 46.3251 119.658 46.7832Z" fill="url(#paint5_radial_101_8)" fill-opacity="0.5"/>
<path d="M71.2067 93.0768V93.0767L71.198 93.0768L55.0886 93.3546C60.8544 90.216 65.3555 86.6549 68.572 82.6624C72.168 78.2646 74.0136 73.9945 74.0136 69.8616C74.0136 65.5557 72.6174 62.1357 69.785 59.6687C66.9627 57.2105 63.0932 56.012 58.2399 56.012C54.209 56.012 50.7623 56.7012 47.9192 58.1036C45.0925 59.4458 42.9458 61.2575 41.5085 63.5494C40.0793 65.8284 39.3638 68.3288 39.3638 71.0395C39.3638 72.6913 39.783 74.0363 40.6945 74.9961L40.7001 75.0019L40.7058 75.0076C41.6697 75.959 42.9749 76.4082 44.5573 76.4082C46.1972 76.4082 47.5193 76.0033 48.4286 75.1057C49.3391 74.2069 49.7508 72.8982 49.7508 71.2751C49.7508 69.1351 50.401 67.5286 51.6524 66.3865C52.9733 65.2291 54.7285 64.6291 56.9671 64.6291C58.9123 64.6291 60.2041 65.1098 60.9719 65.9569L60.9813 65.9672L60.9912 65.977C61.8108 66.7861 62.2743 68.1205 62.2743 70.0972C62.2743 72.5309 61.3438 75.129 59.4202 77.9003L59.4202 77.9003L59.4166 77.9056C57.5432 80.6795 55.0119 83.2847 51.8125 85.7182C48.6618 88.1027 45.3021 90.0717 41.7329 91.6261C40.0008 92.3743 38.6797 93.2487 37.8157 94.2697C36.9137 95.2821 36.5 96.6998 36.5 98.4454C36.5 100.008 36.7706 101.276 37.3811 102.18L37.3921 102.197L37.4043 102.212C38.0713 103.05 38.9253 103.5 39.9434 103.5C40.5342 103.5 41.2173 103.384 41.9841 103.168C42.7799 102.959 43.2936 102.833 43.5404 102.784L43.5764 102.777L43.611 102.764C44.9271 102.297 45.8671 102.087 46.4665 102.087C47.9902 102.087 50.1004 102.164 52.8015 102.321C55.5015 102.478 57.3574 102.583 58.368 102.635C63.4064 103.002 67.2112 103.186 69.7748 103.186C71.3925 103.186 72.7086 102.608 73.6624 101.431C74.6332 100.247 75.1273 98.9064 75.1273 97.4246C75.1273 96.2326 74.8091 95.201 74.1435 94.3648C73.4469 93.4896 72.4406 93.0768 71.2067 93.0768ZM82.9606 98.0601L82.9636 98.0636C85.9397 101.545 90.1208 103.264 95.4353 103.264C99.5133 103.264 103.094 102.108 106.157 99.7876C109.262 97.4743 111.647 94.2553 113.319 90.1544C115.046 86 115.902 81.248 115.902 75.9082C115.902 69.6092 114.455 64.687 111.489 61.2149C108.565 57.7305 104.408 56.012 99.0947 56.012C95.0159 56.012 91.4095 57.1686 88.2954 59.4876L88.292 59.4902C85.2393 61.804 82.8565 65.0487 81.1319 69.1985L81.1306 69.2016C79.4575 73.304 78.6275 78.0295 78.6275 83.3682C78.6275 89.6665 80.0478 94.588 82.9606 98.0601ZM103.206 68.479L103.209 68.4842C104.354 70.2524 104.959 72.8886 104.959 76.4579C104.959 81.8077 104.142 85.9841 102.55 89.0259C100.967 92.0489 98.8612 93.4694 96.2308 93.4694C94.0029 93.4694 92.3647 92.604 91.2439 90.875C90.1497 89.1047 89.5713 86.4662 89.5713 82.8971C89.5713 77.5472 90.3883 73.3709 91.9804 70.329L91.9819 70.326C93.5661 67.2488 95.6732 65.807 98.2992 65.807C100.465 65.807 102.08 66.6907 103.206 68.479ZM124.985 63.1561L124.99 63.1543C126.227 62.7166 127.233 62.0735 127.985 61.212C128.755 60.3292 129.135 59.2612 129.135 58.0367C129.135 56.7576 128.703 55.6675 127.829 54.8041C127.339 54.3064 126.776 53.9271 126.146 53.6652C126.918 53.2423 127.586 52.7172 128.147 52.0875C129.031 51.0965 129.5 50.0004 129.5 48.8098C129.5 47.0837 128.88 45.7201 127.601 44.8041C126.355 43.9117 124.611 43.5 122.437 43.5C120.861 43.5 119.456 43.748 118.234 44.2585L118.234 44.2584L118.231 44.2598C117.044 44.7652 116.096 45.4437 115.415 46.3081C114.738 47.1681 114.38 48.1034 114.38 49.1043C114.38 49.766 114.563 50.3509 114.97 50.8101L114.981 50.8226L114.993 50.8343C115.442 51.2779 116.047 51.4693 116.736 51.4693C117.335 51.4693 117.875 51.3341 118.283 50.9931L118.285 50.9911C118.704 50.6372 118.974 50.1016 119.142 49.4603L119.144 49.4529L119.146 49.4455C119.287 48.8336 119.577 48.4113 120.002 48.1313C120.44 47.8432 121.07 47.6738 121.94 47.6738C122.735 47.6738 123.242 47.8186 123.539 48.0305C123.804 48.2204 123.959 48.5049 123.959 48.9734C123.959 49.7017 123.689 50.3258 123.119 50.8693C122.588 51.3757 121.659 51.7678 120.242 51.9799L120.233 51.9813L120.223 51.983C119.701 52.0812 119.24 52.2802 118.936 52.6461L118.933 52.6504C118.644 53.0072 118.556 53.526 118.556 54.0776C118.556 54.5863 118.694 55.0513 118.983 55.4505L118.995 55.4672L119.008 55.4828C119.362 55.8954 119.859 56.0883 120.425 56.1149L120.431 56.1152C121.663 56.1578 122.484 56.3607 122.969 56.6618L122.969 56.6619L122.98 56.6687C123.405 56.9173 123.628 57.2976 123.628 57.9058C123.628 58.4685 123.403 58.8593 122.918 59.1404C122.397 59.4335 121.695 59.5981 120.78 59.5981C119.794 59.5981 119.158 59.4465 118.792 59.2166C118.42 58.9831 118.173 58.6457 118.048 58.1715L118.048 58.1714L118.045 58.1595C117.862 57.5289 117.614 57.001 117.253 56.6662C116.882 56.2776 116.354 56.1298 115.775 56.1298C115.05 56.1298 114.431 56.388 113.974 56.9218C113.514 57.4345 113.319 58.1245 113.319 58.9201C113.319 60.3566 114.022 61.5349 115.324 62.4392L115.327 62.4416C116.663 63.3528 118.594 63.7719 121.045 63.7719C122.463 63.7719 123.778 63.5686 124.985 63.1561Z" stroke="#298A27" stroke-opacity="0.1"/>
<defs>
<radialGradient id="paint0_radial_101_8" cx="0" cy="0" r="1" gradientUnits="userSpaceOnUse" gradientTransform="translate(88.3871 55.4449) rotate(29.4301) scale(31.8029 33.2586)">
<stop stop-color="#18F349"/>
<stop offset="0.994792" stop-color="#077B05"/>
</radialGradient>
<radialGradient id="paint1_radial_101_8" cx="0" cy="0" r="1" gradientUnits="userSpaceOnUse" gradientTransform="translate(39.4194 57.6773) rotate(39.6058) scale(32.0997 37.154)">
<stop stop-color="#00FF0A"/>
<stop offset="0.0001" stop-color="#01FF0B"/>
<stop offset="1" stop-color="#00FF0A" stop-opacity="0"/>
</radialGradient>
<radialGradient id="paint2_radial_101_8" cx="0" cy="0" r="1" gradientUnits="userSpaceOnUse" gradientTransform="translate(88.3871 55.4449) rotate(29.4301) scale(31.8029 33.2586)">
<stop stop-color="#18F349"/>
<stop offset="0.994792" stop-color="#077B05"/>
</radialGradient>
<radialGradient id="paint3_radial_101_8" cx="0" cy="0" r="1" gradientUnits="userSpaceOnUse" gradientTransform="translate(39.4194 57.6773) rotate(39.6058) scale(32.0997 37.154)">
<stop stop-color="#00FF0A"/>
<stop offset="0.0001" stop-color="#01FF0B"/>
<stop offset="1" stop-color="#00FF0A" stop-opacity="0"/>
</radialGradient>
<radialGradient id="paint4_radial_101_8" cx="0" cy="0" r="1" gradientUnits="userSpaceOnUse" gradientTransform="translate(88.3871 55.4449) rotate(29.4301) scale(31.8029 33.2586)">
<stop stop-color="#18F349"/>
<stop offset="0.994792" stop-color="#077B05"/>
</radialGradient>
<radialGradient id="paint5_radial_101_8" cx="0" cy="0" r="1" gradientUnits="userSpaceOnUse" gradientTransform="translate(39.4194 57.6773) rotate(39.6058) scale(32.0997 37.154)">
<stop stop-color="#00FF0A"/>
<stop offset="0.0001" stop-color="#01FF0B"/>
<stop offset="1" stop-color="#00FF0A" stop-opacity="0"/>
</radialGradient>
</defs>
</svg>
